<svg version="1.1" id="Layer_1" xmlns="http://www.w3.org/2000/svg" xmlns:xlink="http://www.w3.org/1999/xlink" x="0px" y="0px"
	 width="635.563px" height="612px" viewBox="0 0 635.563 612" enable-background="new 0 0 635.563 612" xml:space="preserve">
<g>
	<path d="M338.018,254.99h-40.455c-2.386,0-4.335,1.744-4.335,3.905v281.036c0,11.375,4.169,53.854,24.564,53.854
		c20.053,0,24.563-39.877,24.563-53.854V258.895C342.354,256.733,340.41,254.99,338.018,254.99z M322.127,542.108
		c0,2.148-1.937,3.903-4.336,3.903s-4.338-1.749-4.338-3.903V305.9c0-2.155,1.938-3.905,4.338-3.905s4.336,1.745,4.336,3.905
		V542.108z"/>
	<path d="M271.669,281.271c-0.425-2.796-3.015-4.714-5.811-4.304l-118.573,17.788c-2.378,0.361-4.112,2.301-4.318,4.594
		L24.982,514.518c-0.057,0.105-0.092,0.205-0.141,0.318c-0.05,0.121-0.107,0.233-0.149,0.354c-0.099,0.241-0.156,0.48-0.212,0.736
		c-0.021,0.12-0.057,0.233-0.071,0.354c-0.042,0.284-0.05,0.565-0.042,0.844c0.007,0.091-0.007,0.176,0,0.268
		c0.028,0.368,0.099,0.73,0.206,1.068c0.007,0.021,0,0.042,0.014,0.072c0.233,0.735,5.959,18.295,24.178,35.864
		c16.655,16.047,47.382,35.172,99.265,35.172c51.882,0,82.609-19.125,99.255-35.172c18.22-17.569,23.946-35.136,24.187-35.864
		c0.007-0.028,0-0.051,0.014-0.072c0.106-0.346,0.169-0.707,0.198-1.068c0.007-0.085,0-0.163,0-0.247
		c0.007-0.284,0-0.573-0.043-0.864c-0.014-0.12-0.049-0.233-0.07-0.346c-0.049-0.248-0.12-0.488-0.205-0.737
		c-0.05-0.127-0.106-0.247-0.156-0.376c-0.05-0.105-0.078-0.204-0.135-0.303L155.581,303.851l111.785-16.762
		C270.162,286.665,272.08,284.066,271.669,281.271z M38.112,511.863L148.043,311.36l109.93,200.495H38.112V511.863z"/>
	<path d="M613.106,466.173c0-0.071-0.007-0.133,0-0.197c0.007-0.306,0-0.603-0.044-0.898c-0.021-0.127-0.051-0.235-0.079-0.354
		c-0.048-0.241-0.113-0.481-0.196-0.721c-0.051-0.137-0.106-0.263-0.164-0.399c-0.049-0.099-0.076-0.197-0.127-0.289
		L494.503,248.139c-0.007-0.092,0-0.184-0.014-0.283c-0.426-2.795-2.992-4.707-5.818-4.303l-118.565,17.781
		c-2.796,0.416-4.722,3.021-4.296,5.817c0.382,2.533,2.562,4.352,5.052,4.352c0.256,0,0.511-0.014,0.766-0.057l108.905-16.336
		L366.375,463.313c-0.057,0.092-0.084,0.19-0.127,0.289c-0.063,0.137-0.121,0.263-0.17,0.399c-0.086,0.239-0.148,0.474-0.198,0.721
		c-0.028,0.119-0.057,0.228-0.078,0.347c-0.042,0.304-0.049,0.609-0.035,0.914c0,0.062-0.007,0.133-0.007,0.189
		c0.035,0.375,0.105,0.744,0.211,1.105c0.008,0.015,0.008,0.028,0.008,0.042c0.234,0.742,5.967,18.312,24.187,35.871
		c16.654,16.047,47.381,35.165,99.257,35.165c51.882,0,82.621-19.118,99.263-35.165c18.227-17.56,23.954-35.129,24.186-35.871
		c0-0.014,0-0.027,0.007-0.044C612.997,466.917,613.069,466.548,613.106,466.173z M379.498,460.66l109.931-200.496L599.364,460.66
		H379.498z"/>
</g>
<g>
	<path d="M84.832,237.105H61.61c-8.127,0-14.514-5.329-14.514-12.106V106.833c0-6.779,6.386-12.108,14.514-12.108h23.222
		c8.127,0,14.513,5.329,14.513,12.108v118.166C99.345,231.776,92.669,237.105,84.832,237.105z"/>
	<path d="M154.498,237.105h-23.223c-8.125,0-14.514-5.329-14.514-12.106v-69.736c0-6.785,6.388-12.11,14.514-12.11h23.223
		c8.128,0,14.512,5.325,14.512,12.11v69.736C169.01,231.776,162.334,237.105,154.498,237.105z"/>
	<path d="M224.163,237.105H200.94c-8.127,0-14.512-5.329-14.512-12.106V31.768c0-6.778,6.385-12.107,14.512-12.107h23.222
		c8.128,0,14.512,5.329,14.512,12.107v193.231C238.675,231.776,231.999,237.105,224.163,237.105z"/>
	<path d="M293.828,237.105h-23.22c-8.131,0-14.517-5.329-14.517-12.106V82.619c0-6.781,6.385-12.106,14.517-12.106h23.22
		c8.125,0,14.514,5.325,14.514,12.106v142.38C308.342,231.776,301.953,237.105,293.828,237.105z"/>
</g>
<g>
	<path d="M364.199,235.66h-23.221c-8.128,0-14.514-5.33-14.514-12.108V105.386c0-6.779,6.386-12.107,14.514-12.107h23.221
		c8.127,0,14.512,5.328,14.512,12.107v118.166C378.711,230.331,372.036,235.66,364.199,235.66z"/>
	<path d="M433.864,235.66h-23.221c-8.127,0-14.515-5.33-14.515-12.108v-69.735c0-6.785,6.388-12.11,14.515-12.11h23.221
		c8.129,0,14.513,5.325,14.513,12.11v69.735C448.377,230.331,441.7,235.66,433.864,235.66z"/>
	<path d="M503.529,235.66h-23.221c-8.127,0-14.515-5.33-14.515-12.108V30.321c0-6.778,6.388-12.106,14.515-12.106h23.221
		c8.129,0,14.514,5.328,14.514,12.106v193.231C518.043,230.331,511.367,235.66,503.529,235.66z"/>
	<path d="M573.197,235.66h-23.224c-8.129,0-14.517-5.33-14.517-12.108V81.174c0-6.782,6.388-12.108,14.517-12.108h23.224
		c8.122,0,14.512,5.326,14.512,12.108v142.378C587.709,230.331,581.319,235.66,573.197,235.66z"/>
</g>
</svg>
