<svg xmlns="http://www.w3.org/2000/svg" xmlns:xlink="http://www.w3.org/1999/xlink" version="1.1" x="0px" y="0px" viewBox="0 0 100 100" enable-background="new 0 0 100 100" xml:space="preserve"><g><g><g><path d="M52.136,21.896l0.001-0.014h-0.006l-0.014-2.118c0.159-3.664,3.152-6.598,6.856-6.601     c3.686-0.006,6.666,2.888,6.866,6.522l5.603-0.005l0.002,2.178L52.136,21.896z"/><path d="M65.872,23.665c-0.074,3.735-3.105,6.742-6.854,6.746c-3.722,0.005-6.739-2.954-6.866-6.65v0.001v-0.014     c-0.001-0.022-0.005-0.043-0.005-0.066L65.872,23.665z"/></g></g><g><polygon points="39.524,19.542 31.479,19.542 31.479,16.582 39.524,16.582 39.524,19.542   "/></g></g><g><g><circle cx="29.145" cy="3.402" r="2.488"/><circle cx="35.551" cy="3.402" r="2.488"/><circle cx="41.957" cy="3.402" r="2.488"/><path d="M79.388,58.104l-9.207-22.986c-0.779-1.84-2.834-3.139-4.688-3.121c-0.038-0.001-10.275-0.004-15.251-0.005V10.756h-3.694    c0.617-0.453,1.022-1.178,1.022-2.002c0-1.374-1.114-2.487-2.49-2.487c-1.373,0-2.487,1.114-2.487,2.487    c0,0.824,0.405,1.549,1.022,2.002h-3.453c0.617-0.453,1.021-1.178,1.021-2.002c0-1.374-1.113-2.487-2.488-2.487    s-2.489,1.114-2.489,2.487c0,0.824,0.406,1.549,1.023,2.002h-3.454c0.617-0.453,1.021-1.178,1.021-2.002    c0-1.374-1.113-2.487-2.486-2.487c-1.376,0-2.49,1.114-2.49,2.487c0,0.824,0.406,1.549,1.022,2.002h-3.453    c0.617-0.453,1.023-1.178,1.023-2.002c0-1.374-1.114-2.487-2.49-2.487c-1.374,0-2.488,1.114-2.488,2.487    c0,0.824,0.406,1.549,1.022,2.002h-3.693v22.931h11.106c-0.05,0.241-0.08,0.489-0.08,0.745v14.604c0,1.486,0.908,2.82,2.289,3.368    c0.433,0.171,0.885,0.255,1.332,0.255c0.98,0,1.942-0.398,2.64-1.142l8.699-9.258v0.066h0.201v52.84    c0,2.271,1.836,4.111,4.111,4.111c2.272,0,4.121-1.84,4.121-4.111V64.223h2.555v30.942c0,2.271,1.844,4.111,4.114,4.111    c2.273,0,4.114-1.84,4.114-4.111l-0.066-51.97l7.012,17.504c0.547,1.363,1.856,2.192,3.239,2.192c0.432,0,0.871-0.08,1.297-0.251    C79.235,61.925,80.104,59.893,79.388,58.104z M23.26,13.254h24.482v17.934H23.26V13.254z M38.954,33.687h5.909l-5.831,6.207    v-5.462C39.033,34.175,39.004,33.928,38.954,33.687z"/></g></g></svg>
