<svg xmlns="http://www.w3.org/2000/svg" xmlns:xlink="http://www.w3.org/1999/xlink" version="1.1" x="0px" y="0px" viewBox="0 0 90 90" enable-background="new 0 0 90 90" xml:space="preserve"><path d="M18.8,48.5c-4.3,0-7.7,3.5-7.7,7.7c0,4.3,3.5,7.7,7.7,7.7c4.3,0,7.7-3.5,7.7-7.7C26.5,52,23.1,48.5,18.8,48.5z M18.8,59.1  c-1.6,0-2.9-1.3-2.9-2.9s1.3-2.9,2.9-2.9s2.9,1.3,2.9,2.9S20.4,59.1,18.8,59.1z M74.7,48.5c-4.3,0-7.7,3.5-7.7,7.7  c0,4.3,3.5,7.7,7.7,7.7c4.3,0,7.7-3.5,7.7-7.7C82.4,52,78.9,48.5,74.7,48.5z M74.7,59.1c-1.6,0-2.9-1.3-2.9-2.9s1.3-2.9,2.9-2.9  c1.6,0,2.9,1.3,2.9,2.9S76.3,59.1,74.7,59.1z M88.1,50.2H87v-3.8h0c0,0,0-0.1,0-0.1c0-1.3-0.1-3.3-0.7-5c-0.6-1.7-1.7-3.8-4.8-4.2  c-2.1-0.3-6.7-0.3-9.9-0.2c-1.9,0.1-2.7,0.8-3.2,0.9c-0.8,0.2-1.2-0.4-1.4-0.8c0,0-1.4-6.3-1.5-6.7c-0.2-0.7,0.2-1.1,0.8-1.1l1.2,0  c-0.7-1.5-2.2-2.6-4.2-2.9C61.6,25.9,53,26,53,26c-2.7,0-4.8,1.9-4.8,4.6v13.7h-1.5V27.8c0-0.4-0.3-0.7-0.7-0.7h-0.6  c-0.4,0-0.7,0.3-0.7,0.7v16.5h-5.1v-1.7h3.1c0.4,0,0.7-0.3,0.7-0.7v-1.2c0-0.4-0.3-0.7-0.7-0.7h-3.1v-1.7h3.1c0.4,0,0.7-0.3,0.7-0.7  v-1.2c0-0.4-0.3-0.7-0.7-0.7h-3.1v-1.7h3.1c0.4,0,0.7-0.3,0.7-0.7v-1.2c0-0.4-0.3-0.7-0.7-0.7h-3.1v-0.5c0-0.4-0.3-0.7-0.7-0.7h-0.4  c-0.4,0-0.7,0.3-0.7,0.7v0.5H25.4V31c0-0.4-0.3-0.7-0.7-0.7h-0.4c-0.4,0-0.7,0.3-0.7,0.7v0.5H11.2V31c0-0.4-0.3-0.7-0.7-0.7h-0.4  c-0.4,0-0.7,0.3-0.7,0.7v0.5H1.4c-0.4,0-0.7,0.3-0.7,0.7v1.2c0,0.4,0.3,0.7,0.7,0.7h7.9v1.7H1.4c-0.4,0-0.7,0.3-0.7,0.7v1.2  c0,0.4,0.3,0.7,0.7,0.7h7.9V40H1.4c-0.4,0-0.7,0.3-0.7,0.7v1.2c0,0.4,0.3,0.7,0.7,0.7h7.9v1.7c0,0,0,0,0,0H4.2  c-0.9,0-1.7,0.7-1.7,1.7v6.8c0,0.9,0.7,1.7,1.7,1.7h5.6c0.8-4.2,4.6-7.4,9-7.4s8.2,3.2,9,7.4h20.5c0.1,0,0.2,0,0.4,0  c0.8,1.6,2.4,2.6,4.3,2.6l4.5,0c0.4-0.7,1-1.9,2-3.5l-5.4,0c-1.4,0-2.5-1.1-2.5-2.5v-2c0-0.4,0.3-0.7,0.7-0.7c0.4,0,0.7,0.3,0.7,0.7  v2c0,0.5,0.4,1,1,1l6.3,0c0.1-0.2,0.3-0.4,0.4-0.6c2.2-3.7,4.4-5.9,7.6-7.6c2.9-1.5,7.9-2.5,12.6-0.1c2.6,1.3,4.3,3.6,5.3,5.9  c0,0.1,0.5,1.3,0.7,2.7c0.2,1.5,0.1,1.9,0.1,1.9h1.1c0.6,0,1.1-0.5,1.1-1.1v-1.8C89.3,50.7,88.8,50.2,88.1,50.2z M11.2,34.1h12.4  v1.7H11.2V34.1z M11.2,38.3h12.4V40H11.2V38.3z M11.2,44.3C11.2,44.3,11.2,44.3,11.2,44.3l0-1.7h12.4v1.7c0,0,0,0,0,0H11.2z   M37.8,44.3H25.4c0,0,0,0,0,0v-1.7h12.4V44.3z M37.8,40H25.4v-1.7h12.4V40z M37.8,35.8H25.4v-1.7h12.4V35.8z M55.3,42.9h-3.2  c-0.4,0-0.7-0.3-0.7-0.7c0-0.4,0.3-0.7,0.7-0.7h3.2c0.4,0,0.7,0.3,0.7,0.7C56,42.5,55.7,42.9,55.3,42.9z M63.5,38h-10  c-0.7,0-1.3-0.6-1.3-1.3v-6c0-0.9,0.7-1.6,1.7-1.6c0,0,7.3,0,8.1,0c0.6,0,1.3,0.6,1.5,1.3c0.1,0.4,1.2,5.8,1.3,6.3  C65,37.4,64.2,38,63.5,38z M80.3,45.1c-3.9-2-8.5-1.4-11.2,0.1c-3,1.6-4.9,3.6-7,7c-0.2,0.3-0.4,0.6-0.5,0.9c0,0.1-0.1,0.2-0.2,0.3  c-0.9,1.6-1.7,2.8-2.1,3.7l6.1,0c0,0,0.1,0,0.1,0c0-0.3,0-0.5,0-0.8c0-5.1,4.1-9.2,9.2-9.2c4.5,0,8.3,3.3,9.1,7.6h1.5  c0.1,0,0.2-0.1,0.2-0.2C86,52.1,84.6,47.2,80.3,45.1z"/></svg>
