<svg xmlns="http://www.w3.org/2000/svg" xmlns:xlink="http://www.w3.org/1999/xlink" version="1.1" x="0px" y="0px" viewBox="0 0 148.336 250.202" style="enable-background:new 0 0 148.336 250.202;" xml:space="preserve"><g><path d="M42.553,175.758c-3.074-3.769-4.938-8.07-5.844-12.607c-4.18-2.985-7.99-5.927-11.458-8.84v83.528   c0,6.828,5.537,12.363,12.365,12.363c6.826,0,12.363-5.535,12.363-12.363v-55.356C47.07,180.441,44.501,178.148,42.553,175.758z"/><path d="M64.51,189.4c-3.282-0.889-6.618-2.267-9.759-3.968v52.406c0,6.828,5.537,12.363,12.365,12.363   c6.826,0,12.363-5.535,12.363-12.363V202.49C73.52,199.637,68.342,195.153,64.51,189.4z"/><path d="M125.976,124.62c2.811-1.137,4.85-3.829,4.997-7.055c0.02-0.418-0.004-0.828-0.048-1.232   c-2.575,1.313-5.715,3.264-9.549,6.12C122.953,123.079,124.487,123.812,125.976,124.62z"/><path d="M121.365,109.056c-2.597-0.248-5.079-0.733-7.451-1.426c0.324,1.726,0.575,3.473,0.7,5.214   C116.905,111.337,119.155,110.079,121.365,109.056z"/><path d="M97.132,25.666c0-8.478-14.079-15.609-33.194-17.705C63.662,3.533,58.564,0,52.298,0c-6.267,0-11.364,3.533-11.64,7.961   C21.543,10.057,7.464,17.188,7.464,25.666c0,6.446,8.142,12.11,20.441,15.379c0.347-3.738,1.555-7.371,3.595-10.652   c3.457-5.556,8.873-9.432,15.244-10.915c1.832-0.427,3.709-0.644,5.576-0.644c11.434,0,21.238,7.79,23.838,18.942   c0.254,1.092,0.423,2.185,0.525,3.271C88.986,37.779,97.132,32.113,97.132,25.666z"/><path d="M47.196,21.426c-9.777,2.276-16.566,10.612-17.324,20.113c-0.18,2.255-0.023,4.575,0.518,6.896   c2.816,12.1,14.91,19.625,27.01,16.808c10.995-2.56,18.211-12.78,17.323-23.704c-0.089-1.098-0.258-2.202-0.515-3.307   C71.39,26.133,59.296,18.607,47.196,21.426z"/><path d="M147.125,112.353c-6.853-4.792-14.109-4.906-21.084-2.535c-4.838,1.645-9.54,4.484-13.876,7.791   c0.257-3.414-0.154-7.142-0.952-10.864c-1.454-6.785-4.209-13.555-6.669-18.383c-5.692-11.181-16.705-16.789-28.377-14.294   c-0.05,0.011-0.1,0.019-0.149,0.03c-1.264,0.277-2.533,0.646-3.806,1.117c-0.822,0.306-0.077,1.419,0.219,1.756   c4.43,5.039,4.746,14.765,6.769,21.009c0.042,0.129,0.1,0.246,0.143,0.374c1.027,2.985,2.587,5.557,4.477,7.904   c-0.757-0.05-1.508-0.06-2.254-0.047c-0.746,0.012-1.487,0.051-2.223,0.123c-12.101,1.172-22.595,10.124-29.923,19.88   c-0.696,0.927-1.367,1.86-2.005,2.796c-2.52,3.697-4.704,7.963-6.287,12.467c1.341,1.064,2.74,2.137,4.191,3.215   c1.209,0.898,2.45,1.801,3.736,2.709c0.328,0.231,0.633,0.484,0.924,0.747c0.199,0.18,0.395,0.363,0.577,0.557   c1.131-3.682,2.603-7.215,4.194-10.402c0.014-0.028,0.027-0.058,0.041-0.085c3.865-7.726,9.784-14.739,16.83-19.821   c1.288-0.929,2.61-1.802,3.969-2.594c1.207-0.704,2.465-1.308,3.752-1.838c2.723-1.121,5.594-1.868,8.506-2.286   c0.321-0.046,0.643-0.098,0.965-0.136c0.184,0.175,0.364,0.349,0.554,0.52c0.586,0.54,1.227,1.28,1.918,2.141   c3.033,3.784,6.997,9.921,11.226,11.934c-1.042,1.037-2.04,2.066-2.986,3.066c-0.781,0.828,5.225,4.802,6.706,3.233   c1.845-1.954,3.793-3.811,5.809-5.596c0.869,0.41,1.689,0.653,2.379,0.561c8.292-1.096,11.845,2.695,15.767,9.746   c2.966,5.337,4.183,11.476,3.384,17.492c-1.272,9.618-10.133,17.765-16.636,24.286c-6.135,6.152-12.947,11.714-20.629,15.81   c-4.093,2.184-8.55,3.561-13.191,3.742c-1.395,0.055-2.587-0.459-3.633-1.304c-2.554-2.063-4.206-6.158-5.593-9.165   c-0.834-1.811-7.866-5.01-9.822-4.882c-3.676,0.235-6.824-1.317-9.313-3.766c-2.087-2.054-3.705-4.735-4.771-7.539   c-0.51-1.342-0.899-2.708-1.147-4.046c-0.222-1.194-0.362-2.411-0.435-3.641c-1.53,0.912-3.292,1.429-5.122,1.429   c-0.14,0-0.278-0.01-0.418-0.016c-1.116-0.047-2.206-0.272-3.233-0.677c0.954,3.337,2.526,6.494,4.84,9.329   c1.477,1.809,3.365,3.584,5.516,5.228c1.48,1.132,3.089,2.196,4.771,3.173c3.575,2.072,7.494,3.728,11.309,4.652   c3.314,5.258,7.953,9.572,13.42,12.444c3.604,1.894,7.564,3.166,11.755,3.648c12.643,1.447,25.213-9.614,33.684-17.561   c12.25-11.49,23.276-24.123,16.354-41.562c-3.265-8.226-11.087-15.343-19.944-19.106c-0.942-0.401-1.894-0.775-2.855-1.097   l-1.456,0.635l-2.81,1.225l-1.077,0.472l-0.388,0.169l-0.665,0.291c0.151-0.135,0.307-0.266,0.461-0.397   c0.074-0.063,0.148-0.127,0.222-0.19c0.404-0.351,0.816-0.691,1.224-1.039c0.346-0.291,0.697-0.573,1.045-0.861   c0.39-0.322,0.776-0.649,1.172-0.966c0.775-0.622,1.55-1.246,2.338-1.851c2.415-1.854,6.98-5.261,11.727-7.596   c4.63-2.278,9.432-3.537,12.582-1.335c0.21,0.146,0.511,0.296,0.865,0.444C145.992,113.968,150.497,114.713,147.125,112.353z    M101.235,119.922c-0.341-0.723-0.668-1.604-1.115-2.275c-1.006-1.51-2.423-2.748-3.71-4c-0.802-0.782-1.559-1.536-2.287-2.285   c-1.235-1.268-2.37-2.508-3.397-3.776c-2.712-3.353-4.715-6.917-6.098-11.823c-1.295-4.592-1.906-9.519-3.78-13.933   c-0.493-1.16-0.958-2.421-1.782-3.411c-0.031-0.037-0.055-0.081-0.087-0.117c0.012,0.013,0.034,0.025,0.065,0.035   c0.125,0.041,0.405,0.061,0.797,0.066c2.554,0.035,9.928-0.549,11.211,0.16c7.466,4.135,10.483,15.609,12.221,23.207   c0.095,0.415,0.194,0.85,0.296,1.296c0.747,3.298,1.598,7.373,1.626,11.108c0.015,1.852-0.15,3.631-0.67,5.175   c-0.218,0.335-0.42,0.604-0.607,0.842c-0.222,0.277-0.421,0.477-0.607,0.639C102.289,121.712,101.745,121.003,101.235,119.922z"/><path d="M114.272,140.422c4.454-0.682-0.255-5.793-3.277-5.33c-7.113,1.089-11.508-3-13.975-9.375   c-1.066-2.744-8.241-4.228-6.838-0.617C94.125,135.288,103.031,142.145,114.272,140.422z"/><path d="M25.251,151.696c0.298,0.257,0.603,0.514,0.907,0.771c1.476,1.249,3.023,2.509,4.647,3.782   c1.739,1.363,3.56,2.741,5.474,4.135c0.781,0.568,1.574,1.139,2.385,1.713c0.115,0.081,0.239,0.138,0.357,0.213   c1.091,0.689,2.286,1.082,3.499,1.197c0.251,0.023,0.502,0.057,0.754,0.057c1.826,0,3.627-0.63,5.076-1.819   c0.542-0.444,1.04-0.962,1.465-1.563c0.06-0.085,0.108-0.173,0.164-0.259c0.68-1.046,1.092-2.192,1.238-3.358   c0.234-1.87-0.201-3.778-1.238-5.37c-0.028-0.044-0.061-0.087-0.091-0.131c-0.523-0.769-1.183-1.464-1.987-2.033   c-1.118-0.79-2.188-1.568-3.235-2.341c-1.467-1.083-2.867-2.149-4.2-3.198c-0.697-0.55-1.377-1.094-2.039-1.635   c-5.564-4.538-9.882-8.743-13.145-12.562c-0.01-0.012-0.021-0.024-0.03-0.035c-1.197-1.403-2.258-2.756-3.182-4.053   c-0.348-0.488-0.671-0.965-0.982-1.437c-3.94-5.955-5.075-10.526-5.086-14.088c0.012-3.221,0.919-5.913,2.483-8.518   c1.66-2.775,4.186-5.301,6.767-7.341v32.282c0.148,0.188,0.29,0.374,0.441,0.562c3.41,4.228,7.899,8.638,13.428,13.187   c1.617-4.418,3.774-8.591,6.256-12.233c0.771-1.131,1.744-2.486,2.9-3.963c5.938-7.588,16.788-18.482,30.886-19.793   c-0.028-0.049-0.053-0.098-0.081-0.147c-0.937-1.62-1.673-3.268-2.227-4.972c-0.695-2.148-1.18-4.566-1.689-7.122   c-0.995-4.966-2.02-10.104-4.586-13.024c-0.367-0.418-1.545-1.921-1.117-3.625c0.222-0.878,0.827-1.567,1.66-1.954   c0.081-0.038,0.152-0.088,0.238-0.12c0.166-0.062,0.333-0.112,0.499-0.17c-0.082-0.002-0.162-0.012-0.245-0.012H32.98   c-0.646,0-1.271,0.088-1.872,0.238c-0.923,0.024-1.856,0.201-2.763,0.564h-0.003c-0.445,0.197-6.881,2.751-13.742,8.328   c-3.424,2.803-6.981,6.392-9.794,11.017C1.997,97.464-0.01,103.211,0,109.683c-0.01,7.783,2.87,16.209,9.05,24.826   c1.601,2.235,3.425,4.499,5.484,6.796C17.565,144.687,21.118,148.145,25.251,151.696z"/></g></svg>
